<?xml version="1.0" encoding="UTF-8"?>
<svg xmlns="http://www.w3.org/2000/svg" xmlns:xlink="http://www.w3.org/1999/xlink" width="810pt" height="809.999993pt" viewBox="0 0 810 809.999993" version="1.2">
<defs>
<clipPath id="clip1">
  <path d="M 65 572 L 744.910156 572 L 744.910156 810 L 65 810 Z M 65 572 "/>
</clipPath>
<clipPath id="clip2">
  <path d="M 474 572 L 744.910156 572 L 744.910156 810 L 474 810 Z M 474 572 "/>
</clipPath>
</defs>
<g id="surface1">
<path style=" stroke:none;fill-rule:nonzero;fill:rgb(20.779419%,12.159729%,9.01947%);fill-opacity:1;" d="M 240.382812 117.894531 C 240.382812 117.894531 131.726562 301.957031 218.578125 510.878906 C 218.578125 510.878906 228.3125 553.574219 203.148438 576.925781 L 334.691406 567.859375 L 334.691406 203.664062 L 240.382812 117.894531 "/>
<path style=" stroke:none;fill-rule:nonzero;fill:rgb(20.779419%,12.159729%,9.01947%);fill-opacity:1;" d="M 592.695312 108.246094 C 592.695312 108.246094 680.632812 301.957031 593.773438 510.878906 C 593.773438 510.878906 584.046875 553.574219 609.242188 576.925781 L 477.667969 567.859375 L 477.667969 203.664062 L 592.695312 108.246094 "/>
<path style=" stroke:none;fill-rule:nonzero;fill:rgb(92.549133%,68.238831%,57.649231%);fill-opacity:1;" d="M 335.703125 603.175781 L 476.65625 603.175781 L 476.65625 497.132812 L 335.703125 497.132812 Z M 335.703125 603.175781 "/>
<path style=" stroke:none;fill-rule:nonzero;fill:rgb(76.469421%,56.079102%,47.44873%);fill-opacity:1;" d="M 404.652344 572.371094 L 335.703125 572.371094 L 335.703125 512.3125 C 361.503906 532.929688 386.742188 543.820312 404.535156 543.960938 L 404.535156 544 L 404.769531 543.960938 L 404.925781 544 L 404.925781 543.960938 C 421.613281 543.828125 444.832031 534.253906 468.933594 516.078125 C 460.691406 530.414062 450.136719 542.859375 437.257812 553.5 C 427.597656 561.515625 416.496094 568.007812 404.652344 572.371094 "/>
<path style=" stroke:none;fill-rule:nonzero;fill:rgb(92.549133%,68.238831%,57.649231%);fill-opacity:1;" d="M 580.726562 275.359375 C 580.726562 144.722656 502.472656 69.640625 405.730469 69.019531 C 405.503906 69.019531 405.199219 69.019531 404.925781 69.019531 L 404.535156 69.019531 C 404.304688 69.019531 404 69.019531 403.726562 69.019531 C 307.03125 69.640625 228.777344 144.722656 228.777344 275.359375 C 228.777344 444.75 350.667969 543.539062 404.535156 543.960938 L 404.535156 544 L 404.769531 543.960938 L 404.925781 544 L 404.925781 543.960938 C 458.792969 543.539062 580.726562 444.75 580.726562 275.359375 "/>
<path style=" stroke:none;fill-rule:nonzero;fill:rgb(92.549133%,68.238831%,57.649231%);fill-opacity:1;" d="M 563.363281 323.683594 L 553.335938 400.703125 C 592.8125 418.078125 598.980469 327.46875 598.980469 327.46875 C 589.875 304.886719 563.363281 323.683594 563.363281 323.683594 "/>
<path style=" stroke:none;fill-rule:nonzero;fill:rgb(92.549133%,68.238831%,57.649231%);fill-opacity:1;" d="M 214.953125 327.46875 C 214.953125 327.46875 221.128906 418.078125 260.601562 400.703125 L 250.570312 323.683594 C 250.570312 323.683594 224.058594 304.886719 214.953125 327.46875 "/>
<g clip-path="url(#clip1)" clip-rule="nonzero">
<path style=" stroke:none;fill-rule:nonzero;fill:rgb(92.549133%,68.238831%,57.649231%);fill-opacity:1;" d="M 335.15625 572.371094 L 165.644531 624.839844 C 165.644531 624.839844 106.296875 635.414062 91.167969 697.136719 L 65.199219 809.167969 L 744.304688 809.167969 L 718.335938 697.136719 C 703.207031 635.414062 643.859375 624.839844 643.859375 624.839844 L 474.304688 572.371094 L 335.15625 572.371094 "/>
<path style=" stroke:none;fill-rule:nonzero;fill:rgb(26.669312%,75.289917%,74.508667%);fill-opacity:1;" d="M 335.15625 572.371094 L 165.644531 624.839844 C 165.644531 624.839844 106.296875 635.414062 91.167969 697.136719 L 65.199219 809.167969 L 744.304688 809.167969 L 718.335938 697.136719 C 703.207031 635.414062 643.859375 624.839844 643.859375 624.839844 L 474.304688 572.371094 L 406.160156 721.308594 L 335.15625 572.371094 "/>
</g>
<path style=" stroke:none;fill-rule:nonzero;fill:rgb(21.569824%,12.548828%,9.01947%);fill-opacity:1;" d="M 537.394531 193.289062 C 537.394531 193.289062 583.046875 467.878906 510.769531 560.636719 C 510.769531 560.636719 586.597656 488.179688 560.082031 216.019531 L 537.394531 193.289062 "/>
<path style=" stroke:none;fill-rule:nonzero;fill:rgb(21.569824%,12.548828%,9.01947%);fill-opacity:1;" d="M 261.496094 193.289062 C 261.496094 193.289062 215.839844 467.878906 288.074219 560.636719 C 288.074219 560.636719 212.296875 488.179688 238.800781 216.019531 L 261.496094 193.289062 "/>
<path style=" stroke:none;fill-rule:nonzero;fill:rgb(89.019775%,89.408875%,87.449646%);fill-opacity:1;" d="M 335.15625 572.371094 L 335.703125 809.167969 L 65.199219 809.167969 L 91.167969 697.136719 C 106.296875 635.414062 165.644531 624.839844 165.644531 624.839844 L 335.15625 572.371094 "/>
<path style=" stroke:none;fill-rule:nonzero;fill:rgb(17.248535%,48.239136%,48.629761%);fill-opacity:1;" d="M 380.617188 669.496094 C 365.816406 661.769531 350.824219 658.886719 336.671875 658.886719 C 336.222656 658.886719 335.792969 658.886719 335.355469 658.898438 L 335.296875 634.773438 C 366.742188 635.066406 380.617188 669.496094 380.617188 669.496094 "/>
<path style=" stroke:none;fill-rule:nonzero;fill:rgb(58.428955%,57.649231%,56.858826%);fill-opacity:1;" d="M 260.601562 683.9375 C 291.898438 646.574219 316.417969 634.773438 334.910156 634.773438 C 335.039062 634.773438 335.171875 634.773438 335.296875 634.773438 L 335.355469 658.898438 C 294.25 659.417969 260.601562 683.9375 260.601562 683.9375 "/>
<path style=" stroke:none;fill-rule:nonzero;fill:rgb(23.919678%,66.668701%,65.879822%);fill-opacity:1;" d="M 385.671875 678.339844 C 385.671875 678.339844 357.042969 606.148438 260.601562 683.9375 L 295.027344 584.800781 L 335.15625 572.371094 L 385.671875 678.339844 "/>
<g clip-path="url(#clip2)" clip-rule="nonzero">
<path style=" stroke:none;fill-rule:nonzero;fill:rgb(89.019775%,89.408875%,87.449646%);fill-opacity:1;" d="M 474.886719 572.371094 L 476.65625 809.167969 L 744.304688 809.167969 L 718.335938 697.136719 C 703.207031 635.414062 643.859375 624.839844 643.859375 624.839844 L 474.304688 572.371094 L 474.886719 572.371094 "/>
</g>
<path style=" stroke:none;fill-rule:nonzero;fill:rgb(17.248535%,48.239136%,48.629761%);fill-opacity:1;" d="M 431.820312 665.257812 L 432.984375 662.738281 C 436 657.066406 445.34375 643.757812 466.796875 643.757812 C 469.480469 643.757812 472.351562 643.964844 475.421875 644.421875 L 475.441406 645.804688 C 474.339844 648.84375 473.335938 652 472.425781 655.277344 C 459.367188 655.3125 445.566406 658.070312 431.820312 665.257812 "/>
<path style=" stroke:none;fill-rule:nonzero;fill:rgb(58.428955%,57.649231%,56.858826%);fill-opacity:1;" d="M 548.902344 683.507812 C 545.078125 680.476562 521.121094 662.308594 490.03125 656.84375 C 490.851562 654.078125 491.730469 651.46875 492.664062 649.027344 C 507.695312 654.632812 526.195312 665.265625 548.902344 683.507812 M 475.441406 645.804688 L 475.421875 644.421875 C 475.589844 644.445312 475.753906 644.472656 475.921875 644.496094 C 475.753906 644.925781 475.597656 645.367188 475.441406 645.804688 "/>
<path style=" stroke:none;fill-rule:nonzero;fill:rgb(60.389709%,43.919373%,36.859131%);fill-opacity:1;" d="M 432.636719 663.417969 C 432.695312 663.285156 432.761719 663.152344 432.835938 663.011719 L 432.738281 663.21875 C 432.703125 663.285156 432.671875 663.351562 432.636719 663.417969 "/>
<path style=" stroke:none;fill-rule:nonzero;fill:rgb(17.248535%,48.239136%,48.629761%);fill-opacity:1;" d="M 432.738281 663.21875 L 432.835938 663.011719 C 432.960938 662.738281 433.101562 662.457031 433.257812 662.152344 L 432.984375 662.738281 C 432.902344 662.90625 432.820312 663.0625 432.738281 663.21875 "/>
<path style=" stroke:none;fill-rule:nonzero;fill:rgb(23.919678%,66.668701%,65.879822%);fill-opacity:1;" d="M 431.820312 665.257812 C 431.820312 665.257812 453 606.148438 549.4375 683.9375 L 515.015625 584.800781 L 474.886719 572.371094 L 431.820312 665.257812 "/>
<path style=" stroke:none;fill-rule:nonzero;fill:rgb(20.779419%,12.159729%,9.01947%);fill-opacity:1;" d="M 335.703125 144.796875 C 335.703125 144.796875 277.738281 164.636719 260.601562 233.285156 C 260.601562 233.285156 257.398438 280.105469 231.203125 316.355469 C 231.203125 316.355469 219.050781 309.523438 214.953125 327.46875 C 214.953125 327.46875 167.574219 76.515625 344.113281 49.21875 L 335.703125 144.796875 "/>
<path style=" stroke:none;fill-rule:nonzero;fill:rgb(16.468811%,9.408569%,6.669617%);fill-opacity:1;" d="M 580.726562 316.355469 C 579.917969 316.273438 579.121094 316.199219 578.308594 316.117188 C 578.320312 316.066406 578.328125 316 578.335938 315.941406 C 579.121094 316.089844 579.925781 316.222656 580.726562 316.355469 "/>
<path style=" stroke:none;fill-rule:nonzero;fill:rgb(68.629456%,50.19989%,42.349243%);fill-opacity:1;" d="M 578.308594 316.117188 C 574.03125 315.703125 569.792969 315.230469 565.65625 314.734375 C 565.644531 314.019531 565.636719 313.300781 565.628906 312.582031 C 569.609375 313.972656 573.847656 315.113281 578.335938 315.941406 C 578.328125 316 578.320312 316.066406 578.308594 316.117188 "/>
<path style=" stroke:none;fill-rule:nonzero;fill:rgb(16.859436%,9.408569%,6.669617%);fill-opacity:1;" d="M 565.65625 314.734375 C 563.609375 314.484375 561.589844 314.226562 559.570312 313.964844 C 559.355469 312.539062 559.105469 311.171875 558.816406 309.863281 C 561.003906 310.851562 563.269531 311.761719 565.628906 312.582031 C 565.636719 313.300781 565.644531 314.019531 565.65625 314.734375 "/>
<path style=" stroke:none;fill-rule:nonzero;fill:rgb(68.629456%,50.19989%,42.349243%);fill-opacity:1;" d="M 452.613281 286.082031 C 337.078125 237.011719 323.15625 150.742188 323.15625 150.742188 C 323.816406 150.734375 324.460938 150.734375 325.125 150.734375 C 325.382812 150.734375 325.644531 150.734375 325.902344 150.734375 C 333.476562 169.480469 370.121094 243.601562 487.34375 280.988281 C 472.566406 281.726562 461.234375 283.507812 452.613281 286.082031 M 523.648438 281.0625 C 520.1875 280.683594 516.59375 280.5 512.910156 280.433594 C 508.921875 273.230469 504.964844 262.398438 507.226562 250.035156 C 507.226562 250.035156 511.667969 265.140625 523.648438 281.0625 "/>
<path style=" stroke:none;fill-rule:nonzero;fill:rgb(20.779419%,12.159729%,9.01947%);fill-opacity:1;" d="M 324.273438 146.34375 C 324.273438 146.34375 356.84375 252.199219 519.417969 289.757812 C 519.417969 289.757812 503.128906 272.425781 507.226562 250.035156 C 507.226562 250.035156 524.128906 307.4375 580.726562 316.355469 C 580.726562 316.355469 589.957031 316.546875 592.695312 319.015625 C 592.695312 319.015625 623.097656 231.777344 597.089844 128.042969 C 597.089844 128.042969 574.28125 -0.0429688 423.367188 4.511719 C 423.367188 4.511719 307.527344 1.886719 310.574219 92.414062 L 324.273438 146.34375 "/>
<path style=" stroke:none;fill-rule:nonzero;fill:rgb(74.119568%,73.728943%,74.119568%);fill-opacity:1;" d="M 609.242188 576.925781 L 607.746094 576.851562 C 607.71875 576.84375 607.703125 576.835938 607.6875 576.816406 L 609.242188 576.925781 M 591.570312 109.171875 C 591.5625 109.164062 591.5625 109.15625 591.554688 109.148438 L 592.695312 108.246094 L 591.570312 109.171875 "/>
<path style=" stroke:none;fill-rule:nonzero;fill:rgb(16.468811%,9.408569%,6.669617%);fill-opacity:1;" d="M 609.242188 576.925781 L 607.6875 576.816406 C 582.167969 563.34375 562.242188 539.960938 555.109375 508.023438 C 547.335938 472.769531 563.054688 435.167969 572.566406 400.183594 C 594.949219 386.652344 598.980469 327.46875 598.980469 327.46875 C 597.355469 323.445312 595.179688 320.738281 592.695312 319 C 593.210938 317.515625 622.875 230.882812 597.089844 128.042969 C 597.089844 128.042969 595.75 120.519531 591.570312 109.171875 L 592.695312 108.246094 C 592.695312 108.246094 632.105469 195.050781 632.097656 315.121094 C 632.097656 374.414062 622.484375 441.816406 593.773438 510.878906 C 593.773438 510.878906 591.925781 518.976562 591.925781 530.046875 C 591.925781 544.398438 595.023438 563.742188 609.242188 576.925781 M 592.546875 318.890625 C 592.199219 318.660156 591.851562 318.441406 591.488281 318.234375 C 591.894531 318.433594 592.25 318.648438 592.546875 318.890625 "/>
<path style=" stroke:none;fill-rule:nonzero;fill:rgb(68.629456%,50.19989%,42.349243%);fill-opacity:1;" d="M 572.566406 400.183594 C 574.015625 394.859375 575.3125 389.597656 576.375 384.414062 C 580.925781 362.109375 583.269531 339.335938 583.699219 316.539062 C 586.089844 316.753906 589.410156 317.226562 591.488281 318.234375 C 591.851562 318.441406 592.199219 318.660156 592.546875 318.890625 C 592.597656 318.933594 592.648438 318.972656 592.695312 319.015625 C 592.695312 319.015625 592.695312 319.015625 592.695312 319 C 595.179688 320.738281 597.355469 323.445312 598.980469 327.46875 C 598.980469 327.46875 594.949219 386.652344 572.566406 400.183594 "/>
<path style=" stroke:none;fill-rule:nonzero;fill:rgb(74.119568%,73.728943%,74.119568%);fill-opacity:1;" d="M 573.351562 73.566406 C 550.996094 40.410156 508.824219 4.398438 431.164062 4.398438 C 428.597656 4.398438 426.015625 4.429688 423.367188 4.511719 C 426.03125 4.429688 428.632812 4.390625 431.214844 4.390625 C 508.878906 4.390625 551.019531 40.417969 573.351562 73.566406 "/>
<path style=" stroke:none;fill-rule:nonzero;fill:rgb(16.468811%,9.408569%,6.669617%);fill-opacity:1;" d="M 592.695312 319.015625 C 592.648438 318.972656 592.597656 318.933594 592.546875 318.890625 C 592.25 318.648438 591.894531 318.433594 591.488281 318.234375 C 589.410156 317.226562 586.089844 316.753906 583.699219 316.539062 C 584.070312 296.285156 582.953125 276.003906 580.535156 255.980469 C 575.445312 213.433594 561.125 174.25 544.769531 134.917969 C 531.070312 102.027344 515.59375 63.695312 482.449219 46.207031 C 467.296875 38.191406 449.09375 35.035156 430.851562 35.035156 C 415.164062 35.035156 399.453125 37.371094 385.632812 40.957031 C 357.84375 48.09375 339.136719 68.640625 329.5625 94.890625 C 324.816406 107.890625 322.730469 121.941406 321.65625 135.960938 L 310.574219 92.414062 C 310.539062 91.246094 310.515625 90.09375 310.515625 88.953125 C 310.515625 82.359375 311.160156 76.289062 312.359375 70.683594 C 321.953125 63.746094 331.738281 57.03125 341.183594 49.757812 C 332.714844 51.207031 324.777344 53.179688 317.335938 55.613281 C 340.148438 6.128906 412.953125 4.503906 422.367188 4.503906 C 423.019531 4.503906 423.367188 4.511719 423.367188 4.511719 C 426.015625 4.429688 428.597656 4.398438 431.164062 4.398438 C 508.824219 4.398438 550.996094 40.410156 573.351562 73.566406 C 582.183594 86.683594 587.921875 99.351562 591.527344 109.164062 L 591.554688 109.148438 C 591.5625 109.15625 591.5625 109.164062 591.570312 109.171875 C 595.75 120.519531 597.089844 128.042969 597.089844 128.042969 C 622.875 230.882812 593.210938 317.515625 592.695312 319 C 592.695312 319.015625 592.695312 319.015625 592.695312 319.015625 "/>
<path style=" stroke:none;fill-rule:nonzero;fill:rgb(74.119568%,73.728943%,74.119568%);fill-opacity:1;" d="M 203.148438 576.925781 L 270.453125 572.289062 C 270.453125 572.289062 270.445312 572.296875 270.445312 572.296875 L 203.148438 576.925781 "/>
<path style=" stroke:none;fill-rule:nonzero;fill:rgb(16.468811%,9.408569%,6.669617%);fill-opacity:1;" d="M 203.148438 576.925781 C 217.335938 563.757812 220.433594 544.433594 220.433594 530.089844 C 220.433594 518.992188 218.578125 510.878906 218.578125 510.878906 C 148.578125 342.480469 205.609375 190.167969 230.367188 137.476562 C 214.25 174.398438 209.523438 216.605469 209.191406 251.832031 C 203.84375 289.195312 204.167969 327.882812 209.25 363.257812 C 213.457031 392.671875 221.707031 420.734375 235.753906 446.953125 C 239.679688 454.28125 243.71875 461.386719 247.65625 468.433594 C 256.109375 504.371094 266.703125 527.871094 274.929688 542.148438 C 276.113281 555.074219 274.34375 564.84375 270.453125 572.289062 L 203.148438 576.925781 M 274.535156 538.542969 C 267.242188 523.539062 261.710938 506.027344 257.613281 487.015625 C 265.683594 503.035156 272.191406 519.558594 274.535156 538.542969 "/>
<path style=" stroke:none;fill-rule:nonzero;fill:rgb(16.859436%,9.408569%,6.669617%);fill-opacity:1;" d="M 274.929688 542.148438 C 266.703125 527.871094 256.109375 504.371094 247.65625 468.433594 C 251.109375 474.625 254.484375 480.785156 257.613281 487.015625 C 261.710938 506.027344 267.242188 523.539062 274.535156 538.542969 C 274.667969 539.578125 274.78125 540.632812 274.882812 541.683594 C 274.898438 541.839844 274.914062 541.988281 274.929688 542.148438 "/>
<path style=" stroke:none;fill-rule:nonzero;fill:rgb(16.468811%,9.408569%,6.669617%);fill-opacity:1;" d="M 209.191406 251.832031 C 209.523438 216.605469 214.25 174.398438 230.367188 137.476562 C 230.613281 136.964844 230.847656 136.457031 231.085938 135.960938 C 233.710938 130.058594 236.640625 124.300781 239.925781 118.746094 C 240.191406 118.199219 240.382812 117.894531 240.382812 117.894531 L 240.382812 117.933594 C 256.738281 90.277344 281.207031 67.445312 317.335938 55.613281 C 315.214844 60.21875 313.527344 65.226562 312.359375 70.683594 C 299.953125 79.652344 287.84375 89 277.164062 100.402344 C 275.652344 102.019531 274.167969 103.648438 272.710938 105.296875 C 279.671875 93.878906 287.097656 83.320312 293.488281 77.730469 C 295.640625 76.035156 296.875 75.195312 296.875 75.195312 C 295.789062 75.859375 294.65625 76.710938 293.488281 77.730469 C 281.75 86.964844 242.617188 121.578125 226.292969 183.921875 C 218.191406 205.261719 212.5625 228.28125 209.191406 251.832031 "/>
<path style=" stroke:none;fill-rule:nonzero;fill:rgb(13.729858%,7.449341%,4.708862%);fill-opacity:1;" d="M 312.359375 70.683594 C 313.527344 65.226562 315.214844 60.21875 317.335938 55.613281 C 324.777344 53.179688 332.714844 51.207031 341.183594 49.757812 C 331.738281 57.03125 321.953125 63.746094 312.359375 70.683594 "/>
<path style=" stroke:none;fill-rule:nonzero;fill:rgb(30.979919%,20.779419%,15.689087%);fill-opacity:1;" d="M 237.800781 282.769531 C 231.589844 214.867188 251.308594 166.691406 251.308594 166.691406 C 222.054688 201.238281 219.589844 258.175781 219.589844 258.175781 C 217.769531 230.089844 220.679688 205.363281 226.292969 183.921875 C 227.121094 181.746094 227.972656 179.59375 228.851562 177.457031 C 239.628906 151.164062 253.964844 126.59375 272.710938 105.296875 C 259.585938 126.84375 248.0625 151.4375 248.0625 151.4375 C 269.527344 133.625 287.472656 129.304688 299.835938 129.304688 C 311.484375 129.304688 318.179688 133.144531 318.179688 133.144531 C 243.972656 163.636719 237.800781 282.769531 237.800781 282.769531 "/>
<path style=" stroke:none;fill-rule:nonzero;fill:rgb(26.269531%,17.248535%,12.939453%);fill-opacity:1;" d="M 226.292969 183.921875 C 242.617188 121.578125 281.75 86.964844 293.488281 77.730469 C 287.097656 83.320312 279.671875 93.878906 272.710938 105.296875 C 253.964844 126.59375 239.628906 151.164062 228.851562 177.457031 C 227.972656 179.59375 227.121094 181.746094 226.292969 183.921875 M 293.488281 77.730469 C 294.65625 76.710938 295.789062 75.859375 296.875 75.195312 C 296.875 75.195312 295.640625 76.035156 293.488281 77.730469 "/>
<path style=" stroke:none;fill-rule:nonzero;fill:rgb(30.979919%,20.779419%,15.689087%);fill-opacity:1;" d="M 492.980469 266.324219 C 373.050781 238.875 344.113281 139.242188 344.113281 139.242188 C 383.238281 193.089844 406.160156 197.1875 406.160156 197.1875 C 378.339844 159.542969 413.726562 128.042969 413.726562 128.042969 C 415.726562 162.59375 492.980469 222.585938 492.980469 222.585938 C 447.257812 220.582031 418.542969 188.34375 418.542969 188.34375 C 434.558594 237.484375 492.980469 266.324219 492.980469 266.324219 "/>
<path style=" stroke:none;fill-rule:nonzero;fill:rgb(13.729858%,12.159729%,12.548828%);fill-opacity:1;" d="M 387.023438 337.976562 C 377.949219 363.988281 354.609375 383.171875 325.554688 380.820312 C 296.492188 378.503906 277.96875 355.5 276.769531 329.28125 C 274.722656 284.699219 304.015625 285.976562 333.152344 286.207031 C 405.230469 286.785156 392.417969 314.808594 387.023438 337.976562 M 333.1875 278.710938 C 299.464844 278.40625 265.511719 276.972656 267.863281 328.628906 C 269.292969 358.96875 290.75 385.648438 324.394531 388.347656 C 358 391.058594 385.085938 368.816406 395.621094 338.664062 C 401.839844 311.800781 416.6875 279.40625 333.1875 278.710938 "/>
<path style=" stroke:none;fill-rule:nonzero;fill:rgb(13.729858%,12.159729%,12.548828%);fill-opacity:1;" d="M 494.296875 288.210938 C 523.421875 287.398438 552.71875 285.585938 551.515625 330.210938 C 550.820312 356.386719 532.726562 379.777344 503.75 382.675781 C 474.769531 385.566406 450.996094 366.84375 441.46875 341.023438 C 435.558594 317.9375 422.21875 290.179688 494.296875 288.210938 M 432.902344 341.910156 C 443.9375 371.828125 471.449219 393.523438 505.054688 390.164062 C 538.628906 386.808594 559.585938 359.707031 560.398438 329.367188 C 561.746094 277.667969 527.859375 279.796875 494.136719 280.726562 C 410.636719 283 426.109375 315.15625 432.902344 341.910156 "/>
<path style=" stroke:none;fill-rule:nonzero;fill:rgb(13.729858%,12.159729%,12.548828%);fill-opacity:1;" d="M 399.132812 313.847656 C 399.132812 313.847656 417.117188 302.074219 434.0625 314.3125 C 434.0625 314.3125 430.007812 302.683594 437.53125 294.925781 C 437.53125 294.925781 419.128906 285.890625 395.507812 294.429688 C 395.507812 294.429688 400.257812 305.972656 399.132812 313.847656 "/>
<path style=" stroke:none;fill-rule:nonzero;fill:rgb(13.729858%,12.159729%,12.548828%);fill-opacity:1;" d="M 285.648438 284.929688 L 251 288.757812 L 247.796875 321.722656 L 272.722656 338.199219 C 272.722656 338.199219 267.316406 306.121094 285.648438 284.929688 "/>
<path style=" stroke:none;fill-rule:nonzero;fill:rgb(13.729858%,12.159729%,12.548828%);fill-opacity:1;" d="M 546.5 288.949219 L 583.46875 292.109375 L 583.46875 326.667969 L 558.082031 342.523438 C 558.082031 342.523438 564.289062 310.601562 546.5 288.949219 "/>
<path style=" stroke:none;fill-rule:nonzero;fill:rgb(94.119263%,74.119568%,65.098572%);fill-opacity:1;" d="M 497.863281 382.964844 C 471.574219 382.964844 450.34375 365.082031 441.46875 341.023438 C 439.433594 333.066406 436.511719 324.554688 436.511719 316.730469 C 436.511719 305.589844 442.429688 295.863281 465.25 291.140625 C 489.246094 300.183594 517.257812 307.636719 549.902344 312.589844 C 550.339844 320.398438 550.722656 328.421875 551.003906 336.5625 C 547.800781 360.070312 530.359375 380.019531 503.75 382.675781 C 501.761719 382.875 499.800781 382.964844 497.863281 382.964844 "/>
<path style=" stroke:none;fill-rule:nonzero;fill:rgb(32.159424%,21.958923%,17.649841%);fill-opacity:1;" d="M 551.003906 336.5625 C 550.722656 328.421875 550.339844 320.398438 549.902344 312.589844 C 549.925781 312.589844 549.960938 312.597656 549.984375 312.597656 C 551.003906 316.84375 551.558594 321.8125 551.558594 327.609375 C 551.558594 328.464844 551.542969 329.324219 551.515625 330.210938 C 551.457031 332.347656 551.292969 334.464844 551.003906 336.5625 "/>
<path style=" stroke:none;fill-rule:nonzero;fill:rgb(74.508667%,58.428955%,51.368713%);fill-opacity:1;" d="M 549.902344 312.589844 C 517.257812 307.636719 489.246094 300.183594 465.25 291.140625 C 472.898438 289.558594 482.441406 288.535156 494.296875 288.210938 C 498.765625 288.085938 503.25 287.9375 507.621094 287.9375 C 509.128906 287.9375 510.617188 287.960938 512.101562 287.996094 C 514.507812 288.597656 516.941406 289.1875 519.417969 289.757812 C 519.417969 289.757812 518.953125 289.261719 518.207031 288.34375 C 523.390625 288.796875 528.257812 289.726562 532.585938 291.449219 C 536.542969 295.441406 541.03125 299.289062 546.101562 302.734375 C 547.683594 305.394531 548.960938 308.507812 549.878906 312.175781 C 549.886719 312.308594 549.894531 312.449219 549.902344 312.589844 "/>
<path style=" stroke:none;fill-rule:nonzero;fill:rgb(27.839661%,19.219971%,14.898682%);fill-opacity:1;" d="M 549.984375 312.597656 C 549.960938 312.597656 549.925781 312.589844 549.902344 312.589844 C 549.894531 312.449219 549.886719 312.308594 549.878906 312.175781 C 549.910156 312.316406 549.945312 312.457031 549.984375 312.597656 "/>
<path style=" stroke:none;fill-rule:nonzero;fill:rgb(31.759644%,21.958923%,17.248535%);fill-opacity:1;" d="M 546.101562 302.734375 C 541.03125 299.289062 536.542969 295.441406 532.585938 291.449219 C 538.132812 293.652344 542.792969 297.179688 546.101562 302.734375 M 519.417969 289.757812 C 516.941406 289.1875 514.507812 288.597656 512.101562 287.996094 C 514.167969 288.0625 516.214844 288.167969 518.207031 288.34375 C 518.953125 289.261719 519.417969 289.757812 519.417969 289.757812 "/>
<path style=" stroke:none;fill-rule:nonzero;fill:rgb(30.979919%,29.798889%,29.798889%);fill-opacity:1;" d="M 497.863281 382.964844 C 471.574219 382.964844 450.34375 365.082031 441.46875 341.023438 C 439.433594 333.066406 436.511719 324.554688 436.511719 316.730469 C 436.511719 324.554688 439.433594 333.066406 441.46875 341.023438 C 450.34375 365.082031 471.574219 382.964844 497.863281 382.964844 C 499.800781 382.964844 501.761719 382.875 503.75 382.675781 C 530.359375 380.019531 547.800781 360.070312 551.003906 336.5625 C 551.292969 334.464844 551.457031 332.347656 551.515625 330.210938 C 551.542969 329.324219 551.558594 328.464844 551.558594 327.609375 C 551.558594 328.464844 551.542969 329.324219 551.515625 330.210938 C 550.820312 356.386719 532.726562 379.777344 503.75 382.675781 C 501.761719 382.875 499.800781 382.964844 497.863281 382.964844 "/>
<path style=" stroke:none;fill-rule:nonzero;fill:rgb(94.119263%,74.119568%,65.098572%);fill-opacity:1;" d="M 330.347656 380.746094 C 328.765625 380.746094 327.167969 380.679688 325.554688 380.546875 C 296.492188 378.238281 277.96875 355.226562 276.769531 329.019531 C 276.710938 327.585938 276.667969 326.195312 276.667969 324.851562 C 276.726562 288.765625 299.679688 286.148438 324.792969 286.148438 C 327.558594 286.148438 330.355469 286.179688 333.152344 286.207031 C 380.914062 286.585938 391.402344 299.023438 391.476562 314.113281 C 391.441406 321.707031 388.816406 329.953125 387.023438 337.664062 C 378.453125 362.230469 357.15625 380.746094 330.347656 380.746094 "/>
<path style=" stroke:none;fill-rule:nonzero;fill:rgb(30.979919%,29.798889%,29.798889%);fill-opacity:1;" d="M 276.667969 324.851562 C 276.621094 288.648438 299.441406 285.875 324.503906 285.875 C 327.367188 285.875 330.257812 285.910156 333.152344 285.933594 C 381.234375 286.324219 391.542969 298.902344 391.476562 314.113281 C 391.402344 299.023438 380.914062 286.585938 333.152344 286.207031 C 330.355469 286.179688 327.558594 286.148438 324.792969 286.148438 C 299.679688 286.148438 276.726562 288.765625 276.667969 324.851562 "/>
<path style=" stroke:none;fill-rule:nonzero;fill:rgb(9.799194%,11.759949%,16.859436%);fill-opacity:1;" d="M 539.09375 568.511719 C 526.941406 555.429688 506.214844 549.675781 477.394531 551.453125 L 477.234375 551.453125 L 477.234375 569.789062 L 477.667969 569.789062 L 478.238281 569.746094 C 500.925781 568.324219 517.289062 572.105469 525.46875 580.75 C 532.453125 588.078125 531.570312 596.882812 531.492188 597.273438 L 549.628906 599.707031 C 549.746094 598.96875 551.90625 582.375 539.09375 568.511719 "/>
<path style=" stroke:none;fill-rule:nonzero;fill:rgb(9.799194%,11.759949%,16.859436%);fill-opacity:1;" d="M 334.691406 551.453125 L 334.195312 551.453125 C 330.953125 551.371094 307.644531 551.5625 284.839844 573.222656 C 254.164062 602.289062 228.777344 683.9375 234.058594 770.679688 L 252.351562 770.679688 C 246.292969 676.71875 278.664062 604.609375 296.875 587.003906 C 315.167969 569.367188 332.921875 569.746094 333.574219 569.746094 L 334.691406 569.746094 L 334.691406 551.453125 "/>
<path style=" stroke:none;fill-rule:nonzero;fill:rgb(74.119568%,73.728943%,73.728943%);fill-opacity:1;" d="M 609.832031 695.671875 C 612.097656 695.671875 614.027344 697.484375 614.152344 699.804688 C 614.226562 700.960938 615.417969 728.296875 610.9375 764.394531 C 610.789062 765.585938 609.789062 775.390625 604.617188 785.269531 C 597.28125 799.480469 585.246094 807.003906 569.808594 807.003906 C 567.382812 807.003906 565.449219 805.035156 565.449219 802.640625 C 565.449219 800.25 567.382812 798.320312 569.808594 798.320312 C 598.871094 798.320312 602.109375 764.964844 602.222656 763.539062 L 602.265625 763.382812 C 606.660156 728.023438 605.460938 700.5 605.425781 700.226562 C 605.351562 697.800781 607.207031 695.789062 609.589844 695.671875 L 609.832031 695.671875 "/>
<path style=" stroke:none;fill-rule:nonzero;fill:rgb(56.469727%,55.688477%,55.688477%);fill-opacity:1;" d="M 577.914062 806.261719 C 578.136719 805.855469 578.285156 805.40625 578.367188 804.933594 C 578.375 804.933594 578.375 804.925781 578.375 804.925781 C 578.375 804.925781 578.375 804.925781 578.375 804.917969 C 578.515625 804.171875 578.527344 803.34375 578.527344 802.433594 C 578.527344 802.433594 578.527344 802.425781 578.527344 802.417969 C 578.527344 802.410156 578.527344 802.402344 578.527344 802.394531 C 578.527344 802.375 578.527344 802.351562 578.527344 802.335938 C 578.527344 802.328125 578.527344 802.328125 578.527344 802.320312 C 578.527344 802.320312 578.527344 802.308594 578.527344 802.308594 C 578.527344 802.292969 578.527344 802.285156 578.527344 802.277344 C 578.527344 802.269531 578.527344 802.269531 578.527344 802.269531 C 578.527344 802.261719 578.527344 802.253906 578.527344 802.246094 C 578.527344 802.246094 578.527344 802.234375 578.527344 802.234375 C 578.527344 802.226562 578.527344 802.21875 578.527344 802.210938 C 578.527344 802.210938 578.527344 802.203125 578.527344 802.195312 C 578.527344 802.195312 578.527344 802.1875 578.527344 802.179688 C 578.507812 801.699219 578.5 801.234375 578.46875 800.785156 C 588.410156 798.699219 596.253906 792.464844 601.453125 782.378906 C 606.007812 773.652344 606.890625 765.007812 607.007812 763.960938 C 609.433594 744.550781 609.972656 728.015625 610.019531 717.832031 C 611.578125 717.78125 613.042969 717.375 614.300781 716.6875 C 614.109375 728.3125 613.332031 745.097656 610.9375 764.394531 C 610.789062 765.585938 609.789062 775.390625 604.617188 785.269531 C 598.621094 796.886719 589.484375 804.03125 577.914062 806.261719 "/>
<path style=" stroke:none;fill-rule:nonzero;fill:rgb(74.119568%,73.728943%,73.728943%);fill-opacity:1;" d="M 474.652344 695.671875 C 472.335938 695.671875 470.40625 697.484375 470.292969 699.804688 C 470.257812 700.960938 469.058594 728.296875 473.535156 764.394531 C 473.652344 765.585938 474.6875 775.390625 479.785156 785.269531 C 487.152344 799.480469 499.195312 807.003906 514.625 807.003906 C 517.066406 807.003906 519.027344 805.035156 519.027344 802.640625 C 519.027344 800.25 517.066406 798.320312 514.625 798.320312 C 485.570312 798.320312 482.335938 764.964844 482.210938 763.539062 L 482.179688 763.382812 C 477.773438 728.023438 478.972656 700.5 479.007812 700.226562 C 479.132812 697.800781 477.234375 695.789062 474.84375 695.671875 L 474.652344 695.671875 "/>
<path style=" stroke:none;fill-rule:nonzero;fill:rgb(56.469727%,55.688477%,55.688477%);fill-opacity:1;" d="M 511.117188 806.875 C 497.367188 805.804688 486.589844 798.386719 479.785156 785.269531 C 474.6875 775.390625 473.652344 765.585938 473.535156 764.394531 C 471.144531 745.132812 470.375 728.363281 470.175781 716.738281 C 471.425781 717.398438 472.882812 717.789062 474.4375 717.832031 C 474.488281 728.015625 475.042969 744.550781 477.46875 763.960938 C 477.542969 765.007812 478.476562 773.652344 482.988281 782.378906 C 488.882812 793.824219 498.226562 800.316406 510.113281 801.398438 C 510.105469 801.65625 510.089844 801.914062 510.082031 802.179688 C 510.082031 802.203125 510.082031 802.234375 510.082031 802.261719 C 510.082031 802.277344 510.082031 802.292969 510.082031 802.308594 C 510.082031 802.308594 510.082031 802.308594 510.082031 802.320312 C 510.082031 802.359375 510.082031 802.402344 510.082031 802.441406 C 510.082031 802.453125 510.082031 802.453125 510.082031 802.460938 C 510.082031 803.363281 510.089844 804.191406 510.238281 804.933594 C 510.371094 805.65625 510.625 806.308594 511.117188 806.875 "/>
<path style=" stroke:none;fill-rule:nonzero;fill:rgb(9.799194%,11.759949%,16.859436%);fill-opacity:1;" d="M 539.167969 593.140625 C 539.441406 593.140625 539.640625 593.179688 539.828125 593.179688 C 540.019531 593.179688 540.175781 593.179688 540.367188 593.179688 C 558.007812 593.179688 573.085938 598.703125 585.289062 609.585938 C 620.441406 641.167969 618.546875 707.605469 618.472656 710.417969 C 618.273438 714.625 614.265625 717.945312 609.484375 717.832031 C 604.65625 717.671875 600.914062 714.164062 601.03125 709.957031 C 601.066406 709.109375 602.761719 647.113281 572.78125 620.285156 C 563.792969 612.210938 552.980469 608.351562 539.828125 608.433594 C 539.554688 608.433594 539.480469 608.46875 539.207031 608.433594 C 538.132812 608.394531 525.394531 608.351562 512.390625 619.316406 C 499.15625 630.46875 483.371094 655.292969 483.371094 710.1875 C 483.371094 714.394531 479.472656 717.832031 474.6875 717.832031 C 469.828125 717.832031 465.929688 714.394531 465.929688 710.1875 C 465.929688 661.316406 477.742188 626.84375 500.925781 607.773438 C 517.488281 594.109375 534.613281 593.140625 539.167969 593.140625 "/>
<path style=" stroke:none;fill-rule:nonzero;fill:rgb(58.428955%,57.649231%,56.858826%);fill-opacity:1;" d="M 614.300781 716.6875 C 616.699219 715.378906 618.347656 713.078125 618.472656 710.417969 C 618.480469 710.105469 618.503906 709.003906 618.503906 707.246094 C 618.503906 709.003906 618.480469 710.105469 618.472656 710.417969 C 618.347656 713.078125 616.699219 715.378906 614.300781 716.6875 "/>
<path style=" stroke:none;fill-rule:nonzero;fill:rgb(39.608765%,38.42926%,38.819885%);fill-opacity:1;" d="M 610.019531 717.832031 C 611.578125 717.78125 613.042969 717.375 614.300781 716.6875 C 613.042969 717.375 611.578125 717.78125 610.019531 717.832031 "/>
<path style=" stroke:none;fill-rule:nonzero;fill:rgb(58.428955%,57.649231%,56.858826%);fill-opacity:1;" d="M 605.542969 716.894531 C 602.960938 715.644531 601.1875 713.277344 601.03125 710.535156 C 601.1875 713.25 602.953125 715.621094 605.542969 716.878906 C 605.542969 716.878906 605.542969 716.886719 605.542969 716.894531 "/>
<path style=" stroke:none;fill-rule:nonzero;fill:rgb(49.798584%,49.01886%,49.409485%);fill-opacity:1;" d="M 609.484375 717.832031 C 608.050781 717.796875 606.710938 717.457031 605.542969 716.894531 C 605.542969 716.886719 605.542969 716.878906 605.542969 716.878906 C 606.710938 717.441406 608.042969 717.789062 609.484375 717.832031 "/>
<path style=" stroke:none;fill-rule:nonzero;fill:rgb(6.669617%,7.449341%,10.978699%);fill-opacity:1;" d="M 609.722656 717.832031 C 609.640625 717.832031 609.558594 717.832031 609.484375 717.832031 C 608.042969 717.789062 606.710938 717.441406 605.542969 716.878906 C 602.953125 715.621094 601.1875 713.25 601.03125 710.535156 C 605.121094 710.535156 608.515625 707.710938 608.628906 704.09375 C 608.746094 701.660156 610.402344 643.75 579.726562 616.269531 C 569.113281 606.726562 555.960938 601.941406 540.632812 601.941406 L 540.136719 601.941406 C 540.019531 601.910156 539.789062 601.910156 539.554688 601.910156 C 535.617188 601.910156 520.683594 602.792969 506.257812 614.644531 C 486.035156 631.28125 475.769531 661.316406 475.769531 703.894531 C 475.769531 707.5625 479.207031 710.535156 483.335938 710.578125 C 483.105469 714.566406 479.363281 717.789062 474.769531 717.832031 C 474.761719 717.832031 474.753906 717.832031 474.746094 717.832031 C 474.746094 717.832031 474.738281 717.832031 474.738281 717.832031 C 474.726562 717.832031 474.71875 717.832031 474.71875 717.832031 C 474.710938 717.832031 474.703125 717.832031 474.6875 717.832031 C 474.605469 717.832031 474.519531 717.832031 474.4375 717.832031 C 472.882812 717.789062 471.425781 717.398438 470.175781 716.738281 C 467.625 715.40625 465.929688 712.960938 465.929688 710.1875 C 465.929688 661.316406 477.742188 626.84375 500.925781 607.773438 C 517.488281 594.109375 534.613281 593.140625 539.167969 593.140625 C 539.441406 593.140625 539.640625 593.179688 539.828125 593.179688 C 540.019531 593.179688 540.175781 593.179688 540.367188 593.179688 C 558.007812 593.179688 573.085938 598.703125 585.289062 609.585938 C 616.527344 637.648438 618.503906 693.246094 618.503906 707.246094 C 618.503906 709.003906 618.480469 710.105469 618.472656 710.417969 C 618.347656 713.078125 616.699219 715.378906 614.300781 716.6875 C 613.042969 717.375 611.578125 717.78125 610.019531 717.832031 C 609.929688 717.832031 609.832031 717.832031 609.730469 717.832031 C 609.730469 717.832031 609.730469 717.832031 609.722656 717.832031 "/>
<path style=" stroke:none;fill-rule:nonzero;fill:rgb(9.799194%,11.759949%,16.859436%);fill-opacity:1;" d="M 552.640625 802.179688 C 552.640625 798.011719 556.035156 794.652344 560.125 794.652344 L 574.171875 795.882812 C 578.527344 796.96875 578.417969 799.246094 578.527344 802.179688 C 578.527344 805.308594 578.527344 807.625 573.824219 808.703125 L 560.125 809.671875 C 556.035156 809.671875 552.640625 806.308594 552.640625 802.179688 "/>
<path style=" stroke:none;fill-rule:nonzero;fill:rgb(25.489807%,28.239441%,37.249756%);fill-opacity:1;" d="M 561.125 807.777344 C 559.082031 807.777344 557.226562 806.964844 555.878906 805.65625 C 557.617188 803.148438 559.777344 802.179688 563.136719 802.179688 C 567.300781 802.179688 569.734375 803.222656 569.421875 807.195312 L 561.125 807.777344 "/>
<path style=" stroke:none;fill-rule:nonzero;fill:rgb(30.589294%,29.40979%,29.798889%);fill-opacity:1;" d="M 578.367188 804.933594 C 578.375 804.933594 578.375 804.925781 578.375 804.925781 C 578.375 804.925781 578.375 804.933594 578.367188 804.933594 M 578.375 804.917969 C 578.515625 804.171875 578.527344 803.335938 578.527344 802.433594 C 578.527344 803.34375 578.515625 804.171875 578.375 804.917969 M 578.527344 802.394531 C 578.527344 802.375 578.527344 802.351562 578.527344 802.335938 C 578.527344 802.351562 578.527344 802.375 578.527344 802.394531 M 578.527344 802.320312 C 578.527344 802.320312 578.527344 802.308594 578.527344 802.308594 C 578.527344 802.308594 578.527344 802.320312 578.527344 802.320312 M 578.527344 802.277344 C 578.527344 802.269531 578.527344 802.269531 578.527344 802.269531 C 578.527344 802.269531 578.527344 802.269531 578.527344 802.277344 "/>
<path style=" stroke:none;fill-rule:nonzero;fill:rgb(42.749023%,41.958618%,41.569519%);fill-opacity:1;" d="M 555.332031 796.40625 C 556.605469 795.339844 558.230469 794.683594 560 794.652344 C 558.238281 794.683594 556.605469 795.339844 555.332031 796.40625 M 560 794.652344 C 560.007812 794.652344 560.015625 794.652344 560.027344 794.652344 C 560.015625 794.652344 560.007812 794.652344 560 794.652344 M 560.035156 794.652344 C 560.035156 794.652344 560.042969 794.652344 560.050781 794.652344 C 560.042969 794.652344 560.035156 794.652344 560.035156 794.652344 M 560.050781 794.652344 C 560.058594 794.652344 560.066406 794.652344 560.066406 794.652344 C 560.066406 794.652344 560.058594 794.652344 560.050781 794.652344 M 560.074219 794.652344 C 560.082031 794.652344 560.082031 794.652344 560.09375 794.652344 C 560.082031 794.652344 560.082031 794.652344 560.074219 794.652344 M 560.101562 794.652344 C 560.109375 794.652344 560.117188 794.652344 560.125 794.652344 C 560.117188 794.652344 560.109375 794.652344 560.101562 794.652344 "/>
<path style=" stroke:none;fill-rule:nonzero;fill:rgb(5.099487%,5.879211%,7.839966%);fill-opacity:1;" d="M 574.667969 808.472656 C 574.667969 803.261719 572.242188 799.015625 566.144531 798.128906 C 564.828125 797.9375 563.535156 797.839844 562.292969 797.839844 C 558.703125 797.839844 555.457031 798.691406 552.792969 800.753906 C 553.121094 799.015625 554.042969 797.5 555.332031 796.40625 C 556.605469 795.339844 558.238281 794.683594 560 794.652344 C 560.007812 794.652344 560.015625 794.652344 560.027344 794.652344 C 560.027344 794.652344 560.027344 794.652344 560.035156 794.652344 C 560.035156 794.652344 560.042969 794.652344 560.050781 794.652344 C 560.058594 794.652344 560.066406 794.652344 560.066406 794.652344 C 560.074219 794.652344 560.074219 794.652344 560.074219 794.652344 C 560.082031 794.652344 560.082031 794.652344 560.09375 794.652344 C 560.09375 794.652344 560.101562 794.652344 560.101562 794.652344 C 560.109375 794.652344 560.117188 794.652344 560.125 794.652344 L 574.171875 795.882812 C 578.527344 796.96875 578.417969 799.246094 578.527344 802.179688 C 578.527344 802.1875 578.527344 802.195312 578.527344 802.195312 C 578.527344 802.203125 578.527344 802.210938 578.527344 802.210938 C 578.527344 802.21875 578.527344 802.226562 578.527344 802.234375 C 578.527344 802.234375 578.527344 802.246094 578.527344 802.246094 C 578.527344 802.253906 578.527344 802.261719 578.527344 802.269531 C 578.527344 802.269531 578.527344 802.269531 578.527344 802.277344 C 578.527344 802.285156 578.527344 802.292969 578.527344 802.308594 C 578.527344 802.308594 578.527344 802.320312 578.527344 802.320312 C 578.527344 802.328125 578.527344 802.328125 578.527344 802.335938 C 578.527344 802.351562 578.527344 802.375 578.527344 802.394531 C 578.527344 802.402344 578.527344 802.410156 578.527344 802.417969 C 578.527344 802.425781 578.527344 802.433594 578.527344 802.433594 C 578.527344 803.335938 578.515625 804.171875 578.375 804.917969 C 578.375 804.925781 578.375 804.925781 578.375 804.925781 C 578.375 804.925781 578.375 804.933594 578.367188 804.933594 C 578.070312 806.5 577.203125 807.710938 574.667969 808.472656 "/>
<path style=" stroke:none;fill-rule:nonzero;fill:rgb(9.799194%,11.759949%,16.859436%);fill-opacity:1;" d="M 535.964844 802.179688 C 535.964844 798.011719 532.613281 794.652344 528.480469 794.652344 L 514.433594 795.882812 C 510.082031 796.96875 510.230469 799.246094 510.082031 802.179688 C 510.082031 805.308594 510.082031 807.625 514.78125 808.703125 L 528.480469 809.671875 C 532.613281 809.671875 535.964844 806.308594 535.964844 802.179688 "/>
<path style=" stroke:none;fill-rule:nonzero;fill:rgb(25.489807%,28.239441%,37.249756%);fill-opacity:1;" d="M 527.480469 807.777344 L 519.1875 807.195312 C 518.878906 803.222656 521.273438 802.179688 525.507812 802.179688 C 528.828125 802.179688 530.988281 803.148438 532.726562 805.65625 C 531.378906 806.964844 529.566406 807.777344 527.480469 807.777344 "/>
<path style=" stroke:none;fill-rule:nonzero;fill:rgb(30.589294%,29.40979%,29.798889%);fill-opacity:1;" d="M 510.238281 804.933594 C 510.089844 804.191406 510.082031 803.363281 510.082031 802.460938 C 510.082031 803.355469 510.089844 804.183594 510.238281 804.933594 M 510.082031 802.441406 C 510.082031 802.402344 510.082031 802.359375 510.082031 802.320312 C 510.082031 802.359375 510.082031 802.402344 510.082031 802.441406 M 510.082031 802.308594 C 510.082031 802.292969 510.082031 802.277344 510.082031 802.261719 C 510.082031 802.277344 510.082031 802.292969 510.082031 802.308594 "/>
<path style=" stroke:none;fill-rule:nonzero;fill:rgb(5.099487%,5.879211%,7.839966%);fill-opacity:1;" d="M 513.9375 808.472656 C 511.40625 807.710938 510.535156 806.5 510.238281 804.933594 C 510.089844 804.183594 510.082031 803.355469 510.082031 802.460938 C 510.082031 802.453125 510.082031 802.453125 510.082031 802.441406 C 510.082031 802.402344 510.082031 802.359375 510.082031 802.320312 C 510.082031 802.308594 510.082031 802.308594 510.082031 802.308594 C 510.082031 802.292969 510.082031 802.277344 510.082031 802.261719 C 510.082031 802.234375 510.082031 802.203125 510.082031 802.179688 C 510.230469 799.246094 510.082031 796.96875 514.433594 795.882812 L 528.480469 794.652344 C 528.488281 794.652344 528.496094 794.652344 528.507812 794.652344 C 528.507812 794.652344 528.515625 794.652344 528.515625 794.652344 C 528.523438 794.652344 528.523438 794.652344 528.53125 794.652344 C 528.53125 794.652344 528.539062 794.652344 528.539062 794.652344 C 528.546875 794.652344 528.546875 794.652344 528.546875 794.652344 C 528.554688 794.652344 528.5625 794.652344 528.5625 794.652344 C 528.5625 794.652344 528.5625 794.652344 528.570312 794.652344 C 528.570312 794.652344 528.582031 794.652344 528.589844 794.652344 C 532.171875 794.707031 535.128906 797.308594 535.816406 800.753906 C 533.148438 798.691406 529.90625 797.839844 526.3125 797.839844 C 525.070312 797.839844 523.78125 797.9375 522.464844 798.128906 C 516.328125 799.015625 513.9375 803.261719 513.9375 808.472656 "/>
<path style=" stroke:none;fill-rule:nonzero;fill:rgb(9.799194%,11.759949%,16.859436%);fill-opacity:1;" d="M 203.84375 770.679688 C 203.84375 748.90625 221.476562 731.304688 243.246094 731.304688 C 264.964844 731.304688 282.605469 748.90625 282.605469 770.679688 C 282.605469 792.414062 264.964844 810.054688 243.246094 810.054688 C 221.476562 810.054688 203.84375 792.414062 203.84375 770.679688 "/>
<path style=" stroke:none;fill-rule:nonzero;fill:rgb(65.489197%,64.709473%,65.098572%);fill-opacity:1;" d="M 214.648438 770.679688 C 214.648438 754.894531 227.417969 742.109375 243.246094 742.109375 C 258.988281 742.109375 271.761719 754.894531 271.761719 770.679688 C 271.761719 786.46875 258.988281 799.246094 243.246094 799.246094 C 227.417969 799.246094 214.648438 786.46875 214.648438 770.679688 "/>
<path style=" stroke:none;fill-rule:nonzero;fill:rgb(56.858826%,56.079102%,56.079102%);fill-opacity:1;" d="M 219.199219 770.679688 C 219.199219 757.402344 229.96875 746.671875 243.246094 746.671875 C 256.480469 746.671875 267.199219 757.402344 267.199219 770.679688 C 267.199219 783.960938 256.480469 794.691406 243.246094 794.691406 C 229.96875 794.691406 219.199219 783.960938 219.199219 770.679688 "/>
</g>
</svg>
